<?xml version="1.0" encoding="UTF-8"?>
<svg width="44px" height="44px" viewBox="0 0 44 44" version="1.1" xmlns="http://www.w3.org/2000/svg" xmlns:xlink="http://www.w3.org/1999/xlink">
    <!-- Generator: sketchtool 58 (101010) - https://sketch.com -->
    <title>30D46083-1839-4D1B-8406-D482DE5BBE3E</title>
    <desc>Created with sketchtool.</desc>
    <defs>
        <polygon id="path-1" points="0 0.0307074846 25.9999769 0.0307074846 25.9999769 22.1481165 0 22.1481165"></polygon>
    </defs>
    <g id="Page-1" stroke="none" stroke-width="1" fill="none" fill-rule="evenodd">
        <g id="Home-(wom)" transform="translate(-1043.000000, -1927.000000)">
            <g id="Social" transform="translate(979.000000, 1927.000000)">
                <g id="Icon/Bitcoin" transform="translate(64.000000, 0.000000)">
                    <circle id="Oval" fill="#3333FF" fill-rule="nonzero" cx="22" cy="22" r="22"></circle>
                    <g id="Group-10" transform="translate(9.000000, 12.000000)">
                        <g id="Group-3">
                            <mask id="mask-2" fill="white">
                                <use xlink:href="#path-1"></use>
                            </mask>
                            <g id="Clip-2"></g>
                            <path d="M12.9962791,20.8320867 C14.205568,20.7700258 15.4156658,20.7212306 16.6236836,20.6390979 C17.0621013,20.609221 17.4969369,20.5095543 17.9302702,20.4255759 C21.0939502,19.8117723 22.6508302,17.8839606 22.5252213,14.7430763 C22.4464124,12.7752364 21.048768,11.0529872 19.2157102,10.7836334 C18.386368,10.6617032 17.5305636,10.6773915 16.688048,10.6946948 C15.227888,10.7245717 13.7686524,10.8551535 12.3093013,10.848809 C10.8691324,10.8425798 9.43000356,10.6754305 7.989488,10.6589347 C6.50344356,10.6418622 5.20194133,11.0796342 4.28651022,12.3758776 C2.32518578,15.1532785 3.79274133,19.1754745 7.166848,20.1940586 C9.06912356,20.7682954 11.0313724,20.7872137 12.9962791,20.8320867 M25.9999769,10.8584988 L25.9999769,12.9348877 C25.9264836,13.3853487 25.8465191,13.8350022 25.7803058,14.2865015 C25.2100391,18.1690026 22.5506436,21.0280748 18.6816124,21.6864054 C15.0592924,22.3027468 11.3828924,22.2749463 7.76450133,21.7638086 C3.91973689,21.2206022 1.34539022,18.9994428 0.389283556,15.1332067 C0.211096889,14.4123537 0.127319111,13.668199 -2.31111111e-05,12.9348877 L-2.31111111e-05,10.8584988 C0.022048,10.8064737 0.0583324444,10.7559482 0.0641102222,10.7021928 C0.238252444,9.08860795 0.882705778,7.68612261 1.93957689,6.45897677 C2.03479467,6.34846674 2.05397689,6.14821057 2.05790578,5.98821327 C2.07523911,5.28004931 2.02046578,4.56600224 2.09107022,3.86406744 C2.22315022,2.55132824 2.498288,1.26488997 3.03562133,0.0307074846 C5.25752356,0.481168519 7.17366578,1.51013457 9.02960356,2.68490926 C9.24765689,2.82275841 9.56485689,2.91400417 9.81353244,2.87685988 C11.9406791,2.55790347 14.0612391,2.55709599 16.187808,2.87870556 C16.4206524,2.91388881 16.7072302,2.82818009 16.9213547,2.71155625 C17.7630613,2.25267431 18.5669813,1.7222723 19.420128,1.28738418 C20.5419413,0.715454398 21.705008,0.232347917 22.9597102,0.0536631173 C23.6428747,1.4898321 24.0495147,3.98265231 23.9553369,5.82152539 C23.9415858,6.09064846 24.0779413,6.38941775 24.2102524,6.64019938 C24.6633458,7.49924761 25.1946702,8.32069012 25.5976124,9.20142508 C25.8298791,9.70910216 25.8721724,10.3032954 25.9999769,10.8584988" id="Fill-1" fill="#FFFFFF" mask="url(#mask-2)"></path>
                        </g>
                        <path d="M10.5925926,14.9516782 C10.309887,15.5840364 10.1408008,16.2138708 9.77635457,16.7191648 C9.19459523,17.5259893 8.1237937,17.5212711 7.42876528,16.8026673 C6.53242149,15.8760206 6.50778255,14.0503785 7.37890353,13.1007989 C8.09716963,12.3177852 9.19424491,12.3085681 9.80192769,13.1699271 C10.1608856,13.6785129 10.3182946,14.3128461 10.5925926,14.9516782" id="Fill-6" fill="#FFFFFF"></path>
                        <path d="M15.5670131,14.9063892 C15.549031,14.223218 15.7398997,13.6009636 16.2122527,13.0738233 C16.864309,12.3464488 17.8707182,12.3342434 18.5594439,13.0336885 C19.4845223,13.9731727 19.4940423,15.8332282 18.5786013,16.7824986 C17.8548517,17.5330744 16.778042,17.531315 16.180167,16.686505 C15.81935,16.1766281 15.6580989,15.5430481 15.4074074,14.965107 C15.460531,14.9454244 15.513772,14.9259618 15.5670131,14.9063892" id="Fill-8" fill="#FFFFFF"></path>
                    </g>
                </g>
            </g>
        </g>
    </g>
</svg>