<?xml version="1.0" encoding="UTF-8"?>
<svg width="44px" height="44px" viewBox="0 0 44 44" version="1.1" xmlns="http://www.w3.org/2000/svg" xmlns:xlink="http://www.w3.org/1999/xlink">
    <!-- Generator: sketchtool 58 (101010) - https://sketch.com -->
    <title>FA0EF469-773C-4125-98FC-B12CBC862CC1</title>
    <desc>Created with sketchtool.</desc>
    <defs>
        <polygon id="path-1" points="0 0.17254902 21.823824 0.17254902 21.823824 21.5684118 0 21.5684118"></polygon>
    </defs>
    <g id="Page-1" stroke="none" stroke-width="1" fill="none" fill-rule="evenodd">
        <g id="Home-(wom)" transform="translate(-1107.000000, -1927.000000)">
            <g id="Social" transform="translate(979.000000, 1927.000000)">
                <g id="Icon/Instagram" transform="translate(128.000000, 0.000000)">
                    <circle id="Oval" fill="#3333FF" fill-rule="nonzero" cx="22" cy="22" r="22"></circle>
                    <g id="Insta" transform="translate(11.000000, 11.000000)">
                        <g id="Group-8">
                            <path d="M10.912088,14.6236588 C8.932088,14.6236588 7.304088,13.0275804 7.304088,11.0864039 C7.304088,9.14522745 8.932088,7.54914902 10.912088,7.54914902 C12.892088,7.54914902 14.520088,9.14522745 14.520088,11.0864039 C14.520088,13.0275804 12.892088,14.6236588 10.912088,14.6236588 M10.912088,5.56483529 C7.832088,5.56483529 5.280088,8.02365882 5.280088,11.0864039 C5.280088,14.1487176 7.788088,16.6079725 10.912088,16.6079725 C14.036088,16.6079725 16.544088,14.1060118 16.544088,11.0864039 C16.544088,8.06679608 13.992088,5.56483529 10.912088,5.56483529" id="Fill-1" fill="#FFFFFF"></path>
                            <path d="M16.764,4.18435686 C17.46888,4.18435686 18.04,4.74427843 18.04,5.43533725 C18.04,6.12596471 17.46888,6.68631765 16.764,6.68631765 C16.05912,6.68631765 15.488,6.12596471 15.488,5.43533725 C15.488,4.74427843 16.05912,4.18435686 16.764,4.18435686" id="Fill-3" fill="#FFFFFF"></path>
                            <g id="Group-7" transform="translate(0.000000, 0.258824)">
                                <mask id="mask-2" fill="white">
                                    <use xlink:href="#path-1"></use>
                                </mask>
                                <g id="Clip-6"></g>
                                <path d="M19.887824,15.3135098 C19.887824,16.6511961 19.403824,17.7296275 18.612264,18.4629608 C17.820264,19.1958627 16.720264,19.584098 15.400264,19.584098 L6.423824,19.584098 C5.103824,19.584098 4.003824,19.1958627 3.212264,18.4629608 C2.419824,17.6860588 2.023824,16.6076275 2.023824,15.2703725 L2.023824,6.42723529 C2.023824,5.13311765 2.419824,4.05468627 3.212264,3.27864706 C3.959824,2.54488235 5.103824,2.15664706 6.423824,2.15664706 L15.487824,2.15664706 C16.807824,2.15664706 17.907824,2.54488235 18.700264,3.32178431 C19.447824,4.09782353 19.887824,5.1762549 19.887824,6.42723529 L19.887824,15.3135098 Z M20.063824,1.94096078 C18.920264,0.776254902 17.292264,0.172333333 15.443824,0.172333333 L6.379824,0.172333333 C2.552264,0.172333333 -0.000176,2.67472549 -0.000176,6.42723529 L-0.000176,15.2703725 C-0.000176,17.1252745 0.615824,18.7213529 1.847824,19.8864902 C3.035824,21.0076275 4.619824,21.5684118 6.423824,21.5684118 L15.400264,21.5684118 C17.292264,21.5684118 18.875824,20.9649216 20.020264,19.8864902 C21.207824,18.7644902 21.823824,17.1688431 21.823824,15.3135098 L21.823824,6.42723529 C21.823824,4.61590196 21.207824,3.06296078 20.063824,1.94096078 L20.063824,1.94096078 Z" id="Fill-5" fill="#FFFFFF" mask="url(#mask-2)"></path>
                            </g>
                        </g>
                    </g>
                </g>
            </g>
        </g>
    </g>
</svg>