<?xml version="1.0" encoding="UTF-8"?>
<svg width="44px" height="44px" viewBox="0 0 44 44" version="1.1" xmlns="http://www.w3.org/2000/svg" xmlns:xlink="http://www.w3.org/1999/xlink">
    <!-- Generator: sketchtool 58 (101010) - https://sketch.com -->
    <title>24BEDC23-767C-43F5-9EF6-56839CDF58A9</title>
    <desc>Created with sketchtool.</desc>
    <defs>
        <polygon id="path-1" points="0 0 22 0 22 19 0 19"></polygon>
    </defs>
    <g id="Page-1" stroke="none" stroke-width="1" fill="none" fill-rule="evenodd">
        <g id="Home-(wom)" transform="translate(-979.000000, -1927.000000)">
            <g id="Social" transform="translate(979.000000, 1927.000000)">
                <g id="Icon/Medium">
                    <circle id="Oval" fill="#3333FF" fill-rule="nonzero" cx="22" cy="22" r="22"></circle>
                    <g id="Group-3" transform="translate(11.000000, 13.000000)">
                        <mask id="mask-2" fill="white">
                            <use xlink:href="#path-1"></use>
                        </mask>
                        <g id="Clip-2"></g>
                        <path d="M22,18.2492767 C22,18.691125 21.7401984,18.9418896 21.3567312,18.9418896 C21.186821,18.9418896 20.9893718,18.891632 20.7820501,18.7864051 L19.8342938,18.3026754 L15.6047237,16.1447387 L22,5.53985617 L22,18.2492767 Z M8.38068021,12.4576089 L8.38068021,5.57440829 L13.0856873,14.8600281 L8.85351913,12.7005208 L8.38068021,12.4576089 Z M13.9258857,0.993635136 L14.3114313,0.357562064 C14.4475673,0.130879233 14.6990553,0 14.9552197,0 C15.0139348,0 15.0768068,0.00785275397 15.135522,0.0256523297 C15.1802078,0.0361226683 15.2269721,0.0528752101 15.2763344,0.0774805059 L21.9127067,3.46149395 C21.9147851,3.46149395 21.9147851,3.46411154 21.9147851,3.46411154 L21.9210203,3.4662056 C21.9251771,3.46829967 21.9251771,3.47353484 21.9288144,3.47615243 C21.9615494,3.50285179 21.9755786,3.54735073 21.9532357,3.58452043 L15.3449221,14.5438239 L14.6694379,15.6625796 L10.2907416,7.02245612 L13.9258857,0.993635136 Z M7.33367974,18.2492767 C7.33367974,18.7193949 7.08375059,19 6.73042041,19 C6.60467643,19 6.46698158,18.9644008 6.31837506,18.8895379 L0.611053377,15.9766897 C0.274350496,15.8054997 0,15.3537046 0,14.9704902 L0,0.693136417 C0,0.316727744 0.19900803,0.0937095308 0.483230987,0.0937095308 C0.584553614,0.0937095308 0.696268304,0.120408894 0.812139821,0.179042791 L1.01270666,0.284269694 L1.01478507,0.284269694 L7.30717997,3.49290497 C7.31705243,3.49866365 7.32536608,3.50913399 7.33367974,3.51646323 L7.33367974,18.2492767 Z" id="Fill-1" fill="#FFFFFF" mask="url(#mask-2)"></path>
                    </g>
                </g>
            </g>
        </g>
    </g>
</svg>