<?xml version="1.0" encoding="UTF-8"?>
<svg width="44px" height="44px" viewBox="0 0 44 44" version="1.1" xmlns="http://www.w3.org/2000/svg" xmlns:xlink="http://www.w3.org/1999/xlink">
    <!-- Generator: sketchtool 58 (101010) - https://sketch.com -->
    <title>F2378F87-A3F4-4A12-B60D-AD0A2DF625A3</title>
    <desc>Created with sketchtool.</desc>
    <defs>
        <polygon id="path-1" points="0 0 21.9999725 0 21.9999725 17.8788431 0 17.8788431"></polygon>
    </defs>
    <g id="Page-1" stroke="none" stroke-width="1" fill="none" fill-rule="evenodd">
        <g id="Home-(wom)" transform="translate(-1171.000000, -1927.000000)">
            <g id="Social" transform="translate(979.000000, 1927.000000)">
                <g id="Icon/Twitter" transform="translate(192.000000, 0.000000)">
                    <circle id="Oval-Copy" fill="#3333FF" fill-rule="nonzero" cx="22" cy="22" r="22"></circle>
                    <g id="Group-3" transform="translate(11.000000, 13.000000)">
                        <mask id="mask-2" fill="white">
                            <use xlink:href="#path-1"></use>
                        </mask>
                        <g id="Clip-2"></g>
                        <path d="M15.11466,0.000405625 C12.6760288,0.062211875 10.7198163,2.05823062 10.7198163,4.51212437 C10.7198163,4.86536187 10.7576975,5.21076187 10.8349725,5.54165562 C7.08362875,5.35321187 3.75771,3.55636187 1.53137875,0.825405625 C1.1428725,1.49173062 0.91950375,2.26791812 0.91950375,3.09587437 C0.91950375,4.66165562 1.71755375,6.04208687 2.9287225,6.85134312 C2.18917875,6.82769312 1.4921225,6.62398687 0.88341,6.28587437 C0.883135,6.30464312 0.88341,6.32513062 0.88341,6.34431187 C0.88341,8.53083687 2.4397725,10.3530556 4.50481625,10.7683744 C4.12614125,10.8711556 3.72725375,10.9264994 3.31544125,10.9264994 C3.024285,10.9264994 2.74192875,10.8988619 2.46637875,10.8457181 C3.0411975,12.6388556 4.70597875,13.9445556 6.68075375,13.9807181 C5.13601,15.1914056 3.1927225,15.9125931 1.07762875,15.9125931 C0.71366625,15.9125931 0.35327875,15.8927244 -2.75e-05,15.8507181 C1.99805375,17.1320119 4.36924125,17.8788431 6.91794125,17.8788431 C15.2206038,17.8788431 19.7604412,11.0010244 19.7604412,5.03634312 C19.7604412,4.84074937 19.7568663,4.64405562 19.74841,4.45024937 C20.63006,3.81520562 21.3952475,3.01969937 21.9999725,2.11446812 C21.1912662,2.47396187 20.3213725,2.71747437 19.4080975,2.82603062 C20.3406225,2.26778062 21.0561037,1.38358687 21.3932537,0.328686875 C20.5210913,0.846305625 19.5549475,1.22250562 18.5263788,1.42524937 C17.7033038,0.548136875 16.52981,0.000405625 15.231535,0.000405625 C15.1926225,0.000405625 15.1533663,-0.000556875 15.11466,0.000405625" id="Fill-1" fill="#FFFFFF" mask="url(#mask-2)"></path>
                    </g>
                </g>
            </g>
        </g>
    </g>
</svg>